<svg width="17" height="17" viewBox="0 0 17 17" fill="none" xmlns="http://www.w3.org/2000/svg">
<path d="M8.5 7.43094e-07C13.1869 3.33352e-07 17 3.8131 17 8.5C17 13.1869 13.1869 17 8.5 17C3.8131 17 1.15284e-06 13.1869 7.43094e-07 8.5C3.33352e-07 3.8131 3.8131 1.15284e-06 8.5 7.43094e-07ZM8.5 3.485C8.28145 3.485 8.06781 3.54981 7.8861 3.67123C7.70438 3.79265 7.56275 3.96522 7.47911 4.16714C7.39548 4.36905 7.3736 4.59123 7.41623 4.80558C7.45887 5.01992 7.56411 5.21682 7.71865 5.37135C7.87319 5.52589 8.07008 5.63113 8.28443 5.67377C8.49878 5.71641 8.72095 5.69452 8.92287 5.61089C9.12478 5.52725 9.29736 5.38562 9.41877 5.20391C9.54019 5.02219 9.605 4.80855 9.605 4.59C9.605 4.29694 9.48858 4.01588 9.28135 3.80865C9.07413 3.60142 8.79306 3.485 8.5 3.485ZM6.46 13.09L10.2 13.09C10.3803 13.09 10.5533 13.0184 10.6808 12.8908C10.8084 12.7633 10.88 12.5903 10.88 12.41C10.88 12.2297 10.8084 12.0567 10.6808 11.9292C10.5533 11.8016 10.3803 11.73 10.2 11.73L9.01 11.73L9.01 7.99L9.69 7.99C9.87035 7.99 10.0433 7.91836 10.1708 7.79083C10.2984 7.66331 10.37 7.49035 10.37 7.31C10.37 7.12965 10.2984 6.95669 10.1708 6.82917C10.0433 6.70164 9.87035 6.63 9.69 6.63L8.33 6.63C8.14965 6.63 7.97669 6.70164 7.84917 6.82917C7.72164 6.95669 7.65 7.12965 7.65 7.31L7.65 11.73L6.46 11.73C6.27965 11.73 6.10669 11.8016 5.97917 11.9292C5.85164 12.0567 5.78 12.2297 5.78 12.41C5.78 12.5903 5.85164 12.7633 5.97917 12.8908C6.10669 13.0184 6.27965 13.09 6.46 13.09Z" fill="#22347F"/>
</svg>
